<svg width="920" height="158" viewBox="0 0 920 158" fill="none" xmlns="http://www.w3.org/2000/svg">
<path d="M0.5 14C0.5 10.9624 2.96244 8.5 6 8.5H134C137.038 8.5 139.5 10.9624 139.5 14V113.657C139.5 115.612 138.462 117.419 136.775 118.406L72.7746 155.8C71.0604 156.801 68.9395 156.801 67.2253 155.8L3.22535 118.406C1.53755 117.419 0.5 115.612 0.5 113.657V14Z" stroke="#B880FF"/>
<path d="M48 0C46.3431 0 45 1.34315 45 3V50.5281C45 52.0694 46.6701 53.0314 48.0034 52.2582L67.4915 40.9558C69.0428 40.0561 70.9572 40.0561 72.5084 40.9558L91.9966 52.2582C93.3299 53.0314 95 52.0694 95 50.5281V3C95 1.34315 93.6569 0 92 0H48Z" fill="#EB583C"/>
<path d="M81.1183 14.2683H76.9812C77.0984 13.6089 77.5004 13.2538 78.3044 12.8311L79.0748 12.4422C80.4315 11.732 81.1685 10.9374 81.1685 9.63542C81.1685 8.80692 80.8503 8.16441 80.2305 7.70789C79.6108 7.23446 78.8738 7.01465 78.0029 7.01465C77.3162 7.01465 76.6964 7.20064 76.1102 7.55571C75.5407 7.91078 75.122 8.36731 74.854 8.92528L76.0599 10.1427C76.5289 9.19581 77.1989 8.72238 78.0866 8.72238C78.8404 8.72238 79.2926 9.11127 79.2926 9.65233C79.2926 10.1089 79.0748 10.4808 78.2039 10.9374L77.7181 11.1741C76.6462 11.7151 75.9092 12.3407 75.4905 13.0509C75.0717 13.7441 74.854 14.6403 74.854 15.7224V16.0098H81.1183V14.2852V14.2683Z" fill="white"/>
<path d="M80.5663 18.0049H73.6991L70.2822 24.0073H77.1327L80.5663 29.9928L84 24.0073L80.5663 18.0049Z" fill="white"/>
<path d="M70.8685 27.9976C66.4969 27.9976 62.946 24.413 62.946 20C62.946 15.587 66.4969 12.0024 70.8685 12.0024L73.5819 6.27053C72.7109 6.10145 71.8064 6 70.8685 6C63.214 6 57 12.2729 57 20C57 27.7271 63.214 34 70.8685 34C73.9169 34 76.7475 33.0024 79.0422 31.3116L76.044 26.0531C74.6538 27.2536 72.8616 27.9976 70.8852 27.9976H70.8685Z" fill="white"/>
<path d="M58.101 76.966V74.626H59.991L61.035 70.99H59.469V68.632H61.701L62.295 66.58H64.851L64.257 68.632H66.543L67.137 66.58H69.657L69.063 68.632H70.305V70.99H68.379L67.317 74.626H68.865V76.966H66.633L66.039 79H63.519L64.113 76.966H61.881L61.305 79H58.749L59.325 76.966H58.101ZM62.547 74.626H64.797L65.859 70.99H63.591L62.547 74.626ZM74.3294 79V69.892H71.4854V68.02C73.2674 67.912 74.4554 66.76 74.7974 65.5H77.2274V79H74.3294ZM33.7067 88.848L30.7007 89.712C30.4127 88.596 29.6567 87.894 28.3427 87.894C27.0467 87.894 26.2367 88.416 26.2367 89.334C26.2367 90.432 27.5507 90.612 29.0987 90.918C31.2047 91.332 33.7427 92.034 33.7427 94.896C33.7427 97.56 31.5647 99.216 28.3607 99.216C25.3187 99.216 23.3207 97.92 22.6547 95.418L25.7687 94.518C26.0567 95.976 27.0467 96.606 28.4687 96.606C29.7287 96.606 30.6287 96.102 30.6287 95.112C30.6287 93.942 29.4047 93.798 27.9467 93.51C25.7687 93.096 23.1047 92.484 23.1047 89.496C23.1047 86.94 25.4807 85.284 28.3967 85.284C31.1327 85.284 32.9687 86.49 33.7067 88.848ZM35.7757 99V85.5H45.0817V88.218H38.8357V90.648H43.0477V93.384H38.8357V96.282H45.2617V99H35.7757ZM46.1295 92.25C46.1295 88.236 49.0635 85.284 53.0955 85.284C57.1275 85.284 60.0615 88.236 60.0615 92.25C60.0615 96.264 57.1275 99.216 53.0955 99.216C49.0635 99.216 46.1295 96.264 46.1295 92.25ZM56.9115 92.25C56.9115 89.73 55.3995 88.092 53.0955 88.092C50.7915 88.092 49.2795 89.73 49.2795 92.25C49.2795 94.77 50.7915 96.408 53.0955 96.408C55.3995 96.408 56.9115 94.77 56.9115 92.25ZM69.1529 99V88.308H65.3369V85.5H76.0289V88.308H72.2129V99H69.1529ZM76.6275 92.25C76.6275 88.236 79.5615 85.284 83.5935 85.284C87.6255 85.284 90.5595 88.236 90.5595 92.25C90.5595 96.264 87.6255 99.216 83.5935 99.216C79.5615 99.216 76.6275 96.264 76.6275 92.25ZM87.4095 92.25C87.4095 89.73 85.8975 88.092 83.5935 88.092C81.2895 88.092 79.7775 89.73 79.7775 92.25C79.7775 94.77 81.2895 96.408 83.5935 96.408C85.8975 96.408 87.4095 94.77 87.4095 92.25ZM92.0611 92.25C92.0611 88.236 94.9951 85.284 99.0271 85.284C103.059 85.284 105.993 88.236 105.993 92.25C105.993 96.264 103.059 99.216 99.0271 99.216C94.9951 99.216 92.0611 96.264 92.0611 92.25ZM102.843 92.25C102.843 89.73 101.331 88.092 99.0271 88.092C96.7231 88.092 95.2111 89.73 95.2111 92.25C95.2111 94.77 96.7231 96.408 99.0271 96.408C101.331 96.408 102.843 94.77 102.843 92.25ZM108.285 99V85.5H111.345V96.192H117.303V99H108.285Z" fill="white"/>
<path d="M195.5 14C195.5 10.9624 197.962 8.5 201 8.5H329C332.038 8.5 334.5 10.9624 334.5 14V113.657C334.5 115.612 333.462 117.419 331.775 118.406L267.775 155.8C266.06 156.801 263.94 156.801 262.225 155.8L198.225 118.406C196.538 117.419 195.5 115.612 195.5 113.657V14Z" stroke="#B880FF"/>
<path d="M243 0C241.343 0 240 1.34315 240 3V50.5281C240 52.0694 241.67 53.0314 243.003 52.2582L262.492 40.9558C264.043 40.0561 265.957 40.0561 267.508 40.9558L286.997 52.2582C288.33 53.0314 290 52.0694 290 50.5281V3C290 1.34315 288.657 0 287 0H243Z" fill="#EB583C"/>
<path d="M276.118 14.2683H271.981C272.098 13.6089 272.5 13.2538 273.304 12.8311L274.075 12.4422C275.432 11.732 276.169 10.9374 276.169 9.63542C276.169 8.80692 275.85 8.16441 275.231 7.70789C274.611 7.23446 273.874 7.01465 273.003 7.01465C272.316 7.01465 271.696 7.20064 271.11 7.55571C270.541 7.91078 270.122 8.36731 269.854 8.92528L271.06 10.1427C271.529 9.19581 272.199 8.72238 273.087 8.72238C273.84 8.72238 274.293 9.11127 274.293 9.65233C274.293 10.1089 274.075 10.4808 273.204 10.9374L272.718 11.1741C271.646 11.7151 270.909 12.3407 270.49 13.0509C270.072 13.7441 269.854 14.6403 269.854 15.7224V16.0098H276.118V14.2852V14.2683Z" fill="white"/>
<path d="M275.566 18.0049H268.699L265.282 24.0073H272.133L275.566 29.9928L279 24.0073L275.566 18.0049Z" fill="white"/>
<path d="M265.868 27.9976C261.497 27.9976 257.946 24.413 257.946 20C257.946 15.587 261.497 12.0024 265.868 12.0024L268.582 6.27053C267.711 6.10145 266.806 6 265.868 6C258.214 6 252 12.2729 252 20C252 27.7271 258.214 34 265.868 34C268.917 34 271.748 33.0024 274.042 31.3116L271.044 26.0531C269.654 27.2536 267.862 27.9976 265.885 27.9976H265.868Z" fill="white"/>
<path d="M242.905 79V65.5H248.359C250.753 65.5 252.391 66.886 252.391 69.028C252.391 70.234 251.851 71.188 250.753 71.854C252.265 72.466 252.985 73.654 252.985 75.13C252.985 77.452 251.203 79 248.629 79H242.905ZM247.963 68.02H245.893V70.81H247.963C248.863 70.81 249.439 70.252 249.439 69.406C249.439 68.542 248.863 68.02 247.963 68.02ZM248.323 73.366H245.893V76.462H248.323C249.349 76.462 249.943 75.868 249.943 74.932C249.943 73.96 249.295 73.366 248.323 73.366ZM255.086 79V65.5H264.392V68.218H258.146V70.648H262.358V73.384H258.146V76.282H264.572V79H255.086ZM276.484 68.848L273.478 69.712C273.19 68.596 272.434 67.894 271.12 67.894C269.824 67.894 269.014 68.416 269.014 69.334C269.014 70.432 270.328 70.612 271.876 70.918C273.982 71.332 276.52 72.034 276.52 74.896C276.52 77.56 274.342 79.216 271.138 79.216C268.096 79.216 266.098 77.92 265.432 75.418L268.546 74.518C268.834 75.976 269.824 76.606 271.246 76.606C272.506 76.606 273.406 76.102 273.406 75.112C273.406 73.942 272.182 73.798 270.724 73.51C268.546 73.096 265.882 72.484 265.882 69.496C265.882 66.94 268.258 65.284 271.174 65.284C273.91 65.284 275.746 66.49 276.484 68.848ZM281.186 79V68.308H277.37V65.5H288.062V68.308H284.246V79H281.186ZM222.059 96.408C223.535 96.408 224.435 95.562 224.435 94.248V85.5H227.495V94.176C227.495 97.254 225.281 99.216 222.059 99.216C218.837 99.216 216.641 97.254 216.641 94.176V85.5H219.701V94.248C219.701 95.562 220.601 96.408 222.059 96.408ZM240.361 88.848L237.355 89.712C237.067 88.596 236.311 87.894 234.997 87.894C233.701 87.894 232.891 88.416 232.891 89.334C232.891 90.432 234.205 90.612 235.753 90.918C237.859 91.332 240.397 92.034 240.397 94.896C240.397 97.56 238.219 99.216 235.015 99.216C231.973 99.216 229.975 97.92 229.309 95.418L232.423 94.518C232.711 95.976 233.701 96.606 235.123 96.606C236.383 96.606 237.283 96.102 237.283 95.112C237.283 93.942 236.059 93.798 234.601 93.51C232.423 93.096 229.759 92.484 229.759 89.496C229.759 86.94 232.135 85.284 235.051 85.284C237.787 85.284 239.623 86.49 240.361 88.848ZM240.87 99L245.964 85.5H249.258L254.334 99H251.148L249.924 95.562H245.136L243.912 99H240.87ZM246.144 92.772H248.934L247.548 88.83L246.144 92.772ZM256.035 99V85.5H261.489C263.883 85.5 265.521 86.886 265.521 89.028C265.521 90.234 264.981 91.188 263.883 91.854C265.395 92.466 266.115 93.654 266.115 95.13C266.115 97.452 264.333 99 261.759 99H256.035ZM261.093 88.02H259.023V90.81H261.093C261.993 90.81 262.569 90.252 262.569 89.406C262.569 88.542 261.993 88.02 261.093 88.02ZM261.453 93.366H259.023V96.462H261.453C262.479 96.462 263.073 95.868 263.073 94.932C263.073 93.96 262.425 93.366 261.453 93.366ZM268.217 99V85.5H271.277V99H268.217ZM274.299 99V85.5H277.359V96.192H283.317V99H274.299ZM285.303 99V85.5H288.363V99H285.303ZM294.229 99V88.308H290.413V85.5H301.105V88.308H297.289V99H294.229ZM306.794 99V93.492L301.97 85.5H305.462L308.396 90.558L311.312 85.5H314.66L309.836 93.492V99H306.794Z" fill="white"/>
<path d="M390.5 14C390.5 10.9624 392.962 8.5 396 8.5H524C527.038 8.5 529.5 10.9624 529.5 14V113.657C529.5 115.612 528.462 117.419 526.775 118.406L462.775 155.8C461.06 156.801 458.94 156.801 457.225 155.8L393.225 118.406C391.538 117.419 390.5 115.612 390.5 113.657V14Z" stroke="#B880FF"/>
<path d="M438.47 0C436.554 0 435 1.55369 435 3.47027V50.9879C435 52.3251 436.449 53.1597 437.606 52.4888L457.388 41.0156C459.004 40.0789 460.996 40.0789 462.611 41.0156L482.394 52.4888C483.551 53.1597 485 52.3251 485 50.9879V3.47027C485 1.55369 483.446 0 481.53 0H438.47Z" fill="#00A9FF"/>
<path fill-rule="evenodd" clip-rule="evenodd" d="M452.205 12.7806V28.2747C452.205 28.5198 452.306 28.7405 452.483 28.9121L456.601 32.9082C456.652 32.9572 456.728 32.9817 456.804 32.9817C456.981 32.9817 457.107 32.8591 457.107 32.6875V13.1238C457.107 12.8787 457.006 12.658 456.829 12.4864L452.457 8.24517C452.388 8.17776 452.297 8.13094 452.205 8.08584V8.07356H452.179L452.205 8.08584V8.10451C452.075 8.03671 451.93 8 451.775 8H440.303C440.126 8 440 8.12258 440 8.29419C440 8.36774 440.025 8.44129 440.101 8.51484L444.22 12.5109C444.397 12.6825 444.624 12.7806 444.877 12.7806H452.205ZM464.839 8C464.67 8 464.511 8.04414 464.372 8.125C464.304 8.16468 464.24 8.21319 464.182 8.26968L464.181 8.27031L459.811 12.5109C459.756 12.5643 459.714 12.6305 459.676 12.6909L459.676 12.691L459.676 12.6911C459.661 12.7139 459.648 12.7359 459.634 12.7561H459.678C459.616 12.8757 459.583 13.008 459.583 13.1484V13.369V32.712C459.583 32.7856 459.608 32.8591 459.659 32.9082C459.785 33.0308 459.962 33.0308 460.089 32.9082L464.207 28.9121C464.384 28.7405 464.485 28.5198 464.485 28.2747V22.3664L474.011 31.6333C474.188 31.8049 474.416 31.8785 474.668 31.8785H479.697C479.874 31.8785 480 31.7559 480 31.5843C480 31.5107 479.975 31.4372 479.924 31.3881L472.142 23.8127L471.838 23.5185V23.4691L471.838 23.4692V23.4941L472.142 23.7882L472.154 23.7759L472.167 23.788L476.513 19.5958C476.69 19.4241 476.791 19.2035 476.791 18.9583V18.7377H476.766C476.766 18.7399 476.766 18.742 476.766 18.7442V13.1483C476.766 12.9032 476.665 12.6825 476.488 12.5109L472.116 8.26968C472.072 8.22677 472.025 8.18847 471.975 8.15514C471.824 8.05516 471.649 8 471.459 8H464.839ZM471.838 19.3261V12.7806H464.485V22.3172L467.442 19.4489C467.517 19.3754 467.593 19.3508 467.669 19.3508H467.844C467.868 19.3354 467.895 19.3261 467.922 19.3261H471.838Z" fill="white"/>
<path d="M433.572 79V65.5H436.794L440.538 70.486L444.156 65.5H447.378V79H444.462V69.46L440.808 74.41H440.142L436.488 69.568V79H433.572ZM449.656 72.25C449.656 68.236 452.59 65.284 456.622 65.284C460.654 65.284 463.588 68.236 463.588 72.25C463.588 76.264 460.654 79.216 456.622 79.216C452.59 79.216 449.656 76.264 449.656 72.25ZM460.438 72.25C460.438 69.73 458.926 68.092 456.622 68.092C454.318 68.092 452.806 69.73 452.806 72.25C452.806 74.77 454.318 76.408 456.622 76.408C458.926 76.408 460.438 74.77 460.438 72.25ZM475.817 68.848L472.811 69.712C472.523 68.596 471.767 67.894 470.453 67.894C469.157 67.894 468.347 68.416 468.347 69.334C468.347 70.432 469.661 70.612 471.209 70.918C473.315 71.332 475.853 72.034 475.853 74.896C475.853 77.56 473.675 79.216 470.471 79.216C467.429 79.216 465.431 77.92 464.765 75.418L467.879 74.518C468.167 75.976 469.157 76.606 470.579 76.606C471.839 76.606 472.739 76.102 472.739 75.112C472.739 73.942 471.515 73.798 470.057 73.51C467.879 73.096 465.215 72.484 465.215 69.496C465.215 66.94 467.591 65.284 470.507 65.284C473.243 65.284 475.079 66.49 475.817 68.848ZM480.519 79V68.308H476.703V65.5H487.395V68.308H483.579V79H480.519ZM429.45 99V85.5H432.51V96.192H438.468V99H429.45ZM438.924 92.25C438.924 88.236 441.858 85.284 445.89 85.284C449.922 85.284 452.856 88.236 452.856 92.25C452.856 96.264 449.922 99.216 445.89 99.216C441.858 99.216 438.924 96.264 438.924 92.25ZM449.706 92.25C449.706 89.73 448.194 88.092 445.89 88.092C443.586 88.092 442.074 89.73 442.074 92.25C442.074 94.77 443.586 96.408 445.89 96.408C448.194 96.408 449.706 94.77 449.706 92.25ZM453.364 85.5H456.622L459.862 95.814L463.048 85.5H466.18L461.806 99H457.756L453.364 85.5ZM468.069 99V85.5H477.375V88.218H471.129V90.648H475.341V93.384H471.129V96.282H477.555V99H468.069ZM479.776 99V85.5H484.528C488.614 85.5 491.296 88.452 491.296 92.196C491.296 96.03 488.614 99 484.528 99H479.776ZM484.528 88.308H482.836V96.192H484.528C486.724 96.192 488.146 94.554 488.146 92.232C488.146 89.928 486.724 88.308 484.528 88.308Z" fill="white"/>
<path fill-rule="evenodd" clip-rule="evenodd" d="M492.334 110.367C494.226 110.85 495 111.367 495 112.733C495 114.15 493.963 115 491.988 115C491.001 114.983 490.013 114.75 489.124 114.3L489.355 112.817C490.178 113.35 491.116 113.633 492.07 113.667C492.91 113.667 493.387 113.367 493.387 112.883C493.387 112.35 493.041 112.15 491.807 111.85C490.029 111.4 489.289 110.9 489.289 109.567C489.289 108.333 490.293 107.45 492.005 107.45C492.893 107.45 493.766 107.617 494.572 107.967L494.342 109.433C493.617 109.033 492.827 108.817 492.005 108.783C491.264 108.783 490.902 109.05 490.902 109.45C490.902 109.85 491.198 110.083 492.334 110.367ZM488.268 107.55V114.85L486.886 114.817L486.639 113.8C485.931 114.45 485.125 114.967 484.137 114.967C482.722 114.967 481.981 114.15 481.981 112.8V107.533H483.726V112.35C483.726 113 484.022 113.433 484.73 113.433C485.339 113.433 485.948 113.067 486.524 112.5V107.55H488.268ZM480.928 107.55V114.85H479.199V107.55H480.928ZM481.076 105.367C481.076 104.8 480.631 104.35 480.072 104.35C479.512 104.35 479.068 104.8 479.068 105.367C479.068 105.933 479.512 106.383 480.072 106.383C480.631 106.383 481.076 105.933 481.076 105.367ZM474.657 113.45C475.364 113.45 475.924 113.05 476.434 112.417V109.267C475.973 109.05 475.447 108.933 474.92 108.95C473.9 108.95 473.143 109.733 473.143 111.333C473.143 112.767 473.784 113.45 474.657 113.45ZM478.163 104V114.85H476.698L476.55 113.85C476.006 114.467 475.282 115 474.229 115C472.649 115 471.381 113.867 471.381 111.433C471.381 108.733 472.929 107.533 474.673 107.533C475.282 107.533 475.875 107.633 476.434 107.817V104.3L478.163 104ZM467.086 113.667C467.777 113.633 468.435 113.35 468.929 112.85H468.945V111.233C466.658 111.5 466.115 112.117 466.115 112.817C466.115 113.333 466.493 113.667 467.086 113.667ZM470.657 109.883V114.833H469.225L469.061 113.9C468.402 114.583 467.497 114.983 466.542 114.983C465.259 114.983 464.403 114.233 464.403 112.983C464.403 111.233 465.884 110.483 468.945 110.183V109.95C468.945 109.167 468.452 108.867 467.629 108.867C466.756 108.9 465.901 109.1 465.111 109.45L464.897 108.05C465.818 107.667 466.822 107.467 467.826 107.467C469.736 107.467 470.657 108.167 470.657 109.883ZM461.341 110.767L464.107 114.583L462.197 114.933L459.498 111.083H458.626V114.85H456.832V105.117H459.877C462.082 105.117 463.415 106.183 463.415 108.05C463.415 109.483 462.592 110.367 461.341 110.767ZM459.646 109.717C460.864 109.717 461.621 109.167 461.621 108.15C461.621 107.183 460.979 106.633 459.745 106.617H458.626V109.717H459.646ZM455.712 113.4L455.926 114.85C455.548 114.933 455.169 114.967 454.774 114.95C453.342 114.95 452.388 114.45 452.388 112.817V108.967H451.219V107.55H452.388V105.317L454.1 105.017V107.55H455.63L455.926 108.967H454.1V112.533C454.1 113.133 454.379 113.45 455.087 113.45C455.301 113.45 455.515 113.433 455.712 113.4ZM448.191 110.367C450.084 110.85 450.857 111.367 450.857 112.733C450.857 114.15 449.82 115 447.894 115C446.89 114.983 445.903 114.75 445.014 114.3L445.261 112.817C446.068 113.35 446.989 113.633 447.944 113.667C448.783 113.667 449.261 113.367 449.261 112.883C449.261 112.35 448.915 112.15 447.681 111.85C445.903 111.4 445.162 110.9 445.162 109.567C445.162 108.333 446.166 107.45 447.878 107.45C448.767 107.45 449.639 107.617 450.446 107.967L450.199 109.433C449.475 109.033 448.685 108.817 447.862 108.783C447.121 108.783 446.759 109.05 446.759 109.45C446.759 109.85 447.055 110.083 448.191 110.367ZM444.224 107.55V114.85L442.842 114.817L442.595 113.8C441.887 114.45 441.08 114.967 440.093 114.967C438.677 114.967 437.937 114.15 437.937 112.8V107.533H439.681V112.35C439.681 113 439.978 113.433 440.685 113.433C441.294 113.433 441.903 113.067 442.479 112.5V107.55H444.224ZM436.719 107.45L437.114 109.167C436.06 109.233 435.089 109.8 434.513 110.683V114.85H432.818V107.55H434.118L434.447 109.067C434.958 108.233 435.616 107.65 436.719 107.45ZM433.509 105.117L433.904 106.734H430.004V114.85H428.209V106.734H425V105.117H433.509Z" fill="white"/>
<path d="M585.5 14C585.5 10.9624 587.962 8.5 591 8.5H719C722.038 8.5 724.5 10.9624 724.5 14V113.657C724.5 115.612 723.462 117.419 721.775 118.406L657.775 155.8C656.06 156.801 653.94 156.801 652.225 155.8L588.225 118.406C586.538 117.419 585.5 115.612 585.5 113.657V14Z" stroke="#B880FF"/>
<path d="M633.47 0C631.554 0 630 1.55369 630 3.47027V50.9879C630 52.3251 631.449 53.1597 632.606 52.4888L652.388 41.0156C654.004 40.0789 655.996 40.0789 657.611 41.0156L677.394 52.4888C678.551 53.1597 680 52.3251 680 50.9879V3.47027C680 1.55369 678.446 0 676.53 0H633.47Z" fill="#C6A75C"/>
<g clip-path="url(#clip0_190_20701)">
<path d="M641.061 38.0001C640.726 37.6736 640.367 37.324 640 36.9661C645.542 31.6619 651.101 26.3431 656.693 20.9907C652.714 17.1853 648.762 13.4091 644.778 9.59948C644.877 9.58065 644.931 9.56181 644.984 9.56181C647.39 9.56181 649.797 9.56599 652.204 9.55762C652.451 9.55762 652.628 9.62042 652.803 9.78787C654.597 11.5169 656.398 13.2396 658.199 14.9623C660.227 16.9048 662.257 18.8452 664.287 20.7877C664.349 20.8463 664.406 20.907 664.467 20.9698C661.021 24.2645 657.59 27.5446 654.116 30.8686C654.245 30.8895 654.3 30.9084 654.354 30.9084C655.326 30.9104 656.297 30.9146 657.269 30.9063C657.378 30.9063 657.514 30.8581 657.588 30.787C660.977 27.5529 664.362 24.3147 667.746 21.0766C667.764 21.0598 667.777 21.0368 667.795 21.0117C662.229 15.6844 656.665 10.3614 651.07 5.01117C651.451 4.64695 651.786 4.32041 652.134 4.01061C652.167 3.98131 652.324 4.03155 652.381 4.08388C652.976 4.64067 653.56 5.20374 654.149 5.76682C659.389 10.7821 664.631 15.7954 669.873 20.8086C670 20.93 670.068 21.0033 669.899 21.1645C666.038 24.8464 662.183 28.5347 658.33 32.225C658.181 32.3673 658.034 32.4217 657.824 32.4217C655.427 32.4134 653.029 32.4155 650.631 32.4134C650.556 32.4134 650.48 32.4134 650.392 32.4134C654.368 28.6121 658.323 24.8297 662.277 21.0493C662.288 21.0054 662.299 20.9635 662.31 20.9196C662.2 20.8526 662.073 20.8023 661.981 20.7165C658.693 17.5746 655.407 14.4327 652.127 11.2845C651.952 11.115 651.775 11.0501 651.528 11.0522C650.609 11.0647 649.69 11.0564 648.771 11.0564C648.732 11.0564 648.69 11.0647 648.631 11.0731C652.079 14.3657 655.51 17.6416 658.927 20.907C652.93 26.6445 646.992 32.3234 641.059 38.0022L641.061 38.0001Z" fill="white"/>
</g>
<path d="M623.957 70.936C623.957 73.368 625.221 74.744 627.301 74.744C628.949 74.744 629.957 73.928 630.149 72.728H626.357V70.376H632.965V71.608C632.965 74.84 630.709 77.192 627.253 77.192C623.717 77.192 621.157 74.568 621.157 70.936C621.157 67.4 623.749 64.808 627.285 64.808C629.973 64.808 632.069 66.184 632.709 68.52L630.085 69.272C629.749 68.056 628.773 67.304 627.285 67.304C625.365 67.304 623.957 68.6 623.957 70.936ZM635.11 77V65H637.83V74.504H643.126V77H635.11ZM643.532 71C643.532 67.432 646.14 64.808 649.724 64.808C653.308 64.808 655.916 67.432 655.916 71C655.916 74.568 653.308 77.192 649.724 77.192C646.14 77.192 643.532 74.568 643.532 71ZM653.116 71C653.116 68.76 651.772 67.304 649.724 67.304C647.676 67.304 646.332 68.76 646.332 71C646.332 73.24 647.676 74.696 649.724 74.696C651.772 74.696 653.116 73.24 653.116 71ZM657.953 77V65H662.801C664.929 65 666.385 66.232 666.385 68.136C666.385 69.208 665.905 70.056 664.929 70.648C666.273 71.192 666.913 72.248 666.913 73.56C666.913 75.624 665.329 77 663.041 77H657.953ZM662.449 67.24H660.609V69.72H662.449C663.249 69.72 663.761 69.224 663.761 68.472C663.761 67.704 663.249 67.24 662.449 67.24ZM662.769 71.992H660.609V74.744H662.769C663.681 74.744 664.209 74.216 664.209 73.384C664.209 72.52 663.633 71.992 662.769 71.992ZM667.614 77L672.141 65H675.07L679.582 77H676.75L675.661 73.944H671.406L670.318 77H667.614ZM672.302 71.464H674.782L673.55 67.96L672.302 71.464ZM681.094 77V65H683.814V74.504H689.11V77H681.094ZM630.005 86.976L627.333 87.744C627.077 86.752 626.405 86.128 625.237 86.128C624.085 86.128 623.365 86.592 623.365 87.408C623.365 88.384 624.533 88.544 625.909 88.816C627.781 89.184 630.037 89.808 630.037 92.352C630.037 94.72 628.101 96.192 625.253 96.192C622.549 96.192 620.773 95.04 620.181 92.816L622.949 92.016C623.205 93.312 624.085 93.872 625.349 93.872C626.469 93.872 627.269 93.424 627.269 92.544C627.269 91.504 626.181 91.376 624.885 91.12C622.949 90.752 620.581 90.208 620.581 87.552C620.581 85.28 622.693 83.808 625.285 83.808C627.717 83.808 629.349 84.88 630.005 86.976ZM631.844 96V84H640.116V86.416H634.564V88.576H638.308V91.008H634.564V93.584H640.276V96H631.844ZM641.082 96L645.61 84H648.538L653.05 96H650.218L649.13 92.944H644.874L643.786 96H641.082ZM645.77 90.464H648.25L647.018 86.96L645.77 90.464ZM654.563 96V84H659.555C661.955 84 663.667 85.504 663.667 87.888C663.667 89.296 662.915 90.432 661.763 91.056L664.867 96H661.827L659.187 91.776H657.267V96H654.563ZM659.443 86.416H657.267V89.344H659.491C660.387 89.344 660.947 88.784 660.947 87.888C660.947 86.992 660.355 86.416 659.443 86.416ZM665.204 90C665.204 86.448 667.732 83.808 671.3 83.808C674.068 83.808 676.1 85.344 676.692 87.76L674.052 88.544C673.684 87.12 672.788 86.304 671.3 86.304C669.268 86.304 668.004 87.824 668.004 90C668.004 92.176 669.204 93.696 671.236 93.696C672.756 93.696 673.764 92.912 674.18 91.456L676.788 92.192C676.052 94.672 674.02 96.192 671.236 96.192C667.604 96.192 665.204 93.6 665.204 90ZM678.407 96V84H681.127V88.448H686.135V84H688.855V96H686.135V90.944H681.127V96H678.407ZM618.801 115L623.329 103H626.257L630.769 115H627.937L626.849 111.944H622.593L621.505 115H618.801ZM623.489 109.464H625.969L624.737 105.96L623.489 109.464ZM637.25 106.328H637.842L640.466 111.64L642.226 103H644.898L642.418 115H639.554L637.522 110.92L635.602 115H632.738L630.242 103H632.946L634.738 111.64L637.25 106.328ZM644.457 115L648.985 103H651.913L656.425 115H653.593L652.505 111.944H648.249L647.161 115H644.457ZM649.145 109.464H651.625L650.393 105.96L649.145 109.464ZM657.938 115V103H662.93C665.33 103 667.042 104.504 667.042 106.888C667.042 108.296 666.29 109.432 665.138 110.056L668.242 115H665.202L662.562 110.776H660.642V115H657.938ZM662.818 105.416H660.642V108.344H662.866C663.762 108.344 664.322 107.784 664.322 106.888C664.322 105.992 663.73 105.416 662.818 105.416ZM669.782 115V103H674.006C677.638 103 680.022 105.624 680.022 108.952C680.022 112.36 677.638 115 674.006 115H669.782ZM674.006 105.496H672.502V112.504H674.006C675.958 112.504 677.222 111.048 677.222 108.984C677.222 106.936 675.958 105.496 674.006 105.496ZM690.88 105.976L688.208 106.744C687.952 105.752 687.28 105.128 686.112 105.128C684.96 105.128 684.24 105.592 684.24 106.408C684.24 107.384 685.408 107.544 686.784 107.816C688.656 108.184 690.912 108.808 690.912 111.352C690.912 113.72 688.976 115.192 686.128 115.192C683.424 115.192 681.648 114.04 681.056 111.816L683.824 111.016C684.08 112.312 684.96 112.872 686.224 112.872C687.344 112.872 688.144 112.424 688.144 111.544C688.144 110.504 687.056 110.376 685.76 110.12C683.824 109.752 681.456 109.208 681.456 106.552C681.456 104.28 683.568 102.808 686.16 102.808C688.592 102.808 690.224 103.88 690.88 105.976Z" fill="white"/>
<path d="M780.5 14C780.5 10.9624 782.962 8.5 786 8.5H914C917.038 8.5 919.5 10.9624 919.5 14V113.657C919.5 115.612 918.462 117.419 916.775 118.406L852.775 155.8C851.06 156.801 848.94 156.801 847.225 155.8L783.225 118.406C781.538 117.419 780.5 115.612 780.5 113.657V14Z" stroke="#B880FF"/>
<path d="M828.47 0C826.554 0 825 1.55369 825 3.47027V50.9879C825 52.3251 826.449 53.1597 827.606 52.4888L847.388 41.0156C849.004 40.0789 850.996 40.0789 852.611 41.0156L872.394 52.4888C873.551 53.1597 875 52.3251 875 50.9879V3.47027C875 1.55369 873.446 0 871.53 0H828.47Z" fill="#00A9FF"/>
<path d="M861.493 25.7413C859.753 24.7616 857.991 23.7818 856.252 22.7802C855.784 22.4754 855.181 22.4754 854.713 22.7802C853.42 23.5422 852.082 24.239 850.788 25.0011C850.543 25.1752 850.253 25.2188 849.963 25.1535C848.558 24.3479 847.109 23.5205 845.659 22.7584C845.191 22.5625 844.923 22.0834 844.99 21.5827C845.012 20.0803 845.012 18.578 844.99 17.0974C844.945 16.7055 845.191 16.3135 845.57 16.1611C846.886 15.4426 848.179 14.6805 849.495 13.962C850.008 13.7225 850.32 13.2217 850.275 12.6556C850.253 10.696 850.275 8.71469 850.275 6.7551C850.275 6.01481 849.941 5.81885 849.294 6.16722C847.555 7.14701 845.793 8.12681 844.053 9.12838C843.986 9.15015 843.92 9.1937 843.853 9.23724C842.158 10.1953 840.485 11.1533 838.79 12.0895C838.367 12.2855 838.099 12.6774 838.032 13.1347C838.032 13.1564 838.032 13.2 838.01 13.2217C837.988 13.2435 838.01 13.2871 838.01 13.3088C838.01 13.3306 838.01 13.3742 838.01 13.4177C838.01 17.0538 838.01 20.69 838.01 24.3261C838.01 24.6962 838.01 25.0881 838.01 25.4583C837.965 26.0026 838.278 26.5252 838.79 26.7647C842.336 28.7678 845.904 30.771 849.45 32.7741C849.807 32.9918 850.231 33.0571 850.632 32.9483C850.788 32.9047 850.922 32.8394 851.056 32.7741C852.728 31.8161 854.423 30.8798 856.118 29.9218C856.185 29.8783 856.23 29.8565 856.296 29.8129L861.537 26.8518C862.162 26.5034 862.162 26.1115 861.493 25.7413Z" fill="white"/>
<path d="M804.051 80V66.5H807.111V71.504H812.745V66.5H815.805V80H812.745V74.312H807.111V80H804.051ZM817.52 80L822.614 66.5H825.908L830.984 80H827.798L826.574 76.562H821.786L820.562 80H817.52ZM822.794 73.772H825.584L824.198 69.83L822.794 73.772ZM832.686 80V66.5H838.5C841.272 66.5 843.162 68.372 843.162 71.018C843.162 73.592 841.272 75.5 838.5 75.5H835.746V80H832.686ZM838.302 69.218H835.746V72.764H838.302C839.382 72.764 840.102 72.116 840.102 71.018C840.102 69.866 839.382 69.218 838.302 69.218ZM845.201 80V66.5H851.015C853.787 66.5 855.677 68.372 855.677 71.018C855.677 73.592 853.787 75.5 851.015 75.5H848.261V80H845.201ZM850.817 69.218H848.261V72.764H850.817C851.897 72.764 852.617 72.116 852.617 71.018C852.617 69.866 851.897 69.218 850.817 69.218ZM857.858 80V66.5H860.918V80H857.858ZM863.94 80V66.5H873.246V69.218H867V71.648H871.212V74.384H867V77.282H873.426V80H863.94ZM885.338 69.848L882.332 70.712C882.044 69.596 881.288 68.894 879.974 68.894C878.678 68.894 877.868 69.416 877.868 70.334C877.868 71.432 879.182 71.612 880.73 71.918C882.836 72.332 885.374 73.034 885.374 75.896C885.374 78.56 883.196 80.216 879.992 80.216C876.95 80.216 874.952 78.92 874.286 76.418L877.4 75.518C877.688 76.976 878.678 77.606 880.1 77.606C881.36 77.606 882.26 77.102 882.26 76.112C882.26 74.942 881.036 74.798 879.578 74.51C877.4 74.096 874.736 73.484 874.736 70.496C874.736 67.94 877.112 66.284 880.028 66.284C882.764 66.284 884.6 67.49 885.338 69.848ZM890.04 80V69.308H886.224V66.5H896.916V69.308H893.1V80H890.04ZM825.648 99.408C827.124 99.408 828.024 98.562 828.024 97.248V88.5H831.084V97.176C831.084 100.254 828.87 102.216 825.648 102.216C822.426 102.216 820.23 100.254 820.23 97.176V88.5H823.29V97.248C823.29 98.562 824.19 99.408 825.648 99.408ZM843.95 91.848L840.944 92.712C840.656 91.596 839.9 90.894 838.586 90.894C837.29 90.894 836.48 91.416 836.48 92.334C836.48 93.432 837.794 93.612 839.342 93.918C841.448 94.332 843.986 95.034 843.986 97.896C843.986 100.56 841.808 102.216 838.604 102.216C835.562 102.216 833.564 100.92 832.898 98.418L836.012 97.518C836.3 98.976 837.29 99.606 838.712 99.606C839.972 99.606 840.872 99.102 840.872 98.112C840.872 96.942 839.648 96.798 838.19 96.51C836.012 96.096 833.348 95.484 833.348 92.496C833.348 89.94 835.724 88.284 838.64 88.284C841.376 88.284 843.212 89.49 843.95 91.848ZM846.019 102V88.5H855.325V91.218H849.079V93.648H853.291V96.384H849.079V99.282H855.505V102H846.019ZM857.726 102V88.5H863.342C866.042 88.5 867.968 90.192 867.968 92.874C867.968 94.458 867.122 95.736 865.826 96.438L869.318 102H865.898L862.928 97.248H860.768V102H857.726ZM863.216 91.218H860.768V94.512H863.27C864.278 94.512 864.908 93.882 864.908 92.874C864.908 91.866 864.242 91.218 863.216 91.218ZM880.635 91.848L877.629 92.712C877.341 91.596 876.585 90.894 875.271 90.894C873.975 90.894 873.165 91.416 873.165 92.334C873.165 93.432 874.479 93.612 876.027 93.918C878.133 94.332 880.671 95.034 880.671 97.896C880.671 100.56 878.493 102.216 875.289 102.216C872.247 102.216 870.249 100.92 869.583 98.418L872.697 97.518C872.985 98.976 873.975 99.606 875.397 99.606C876.657 99.606 877.557 99.102 877.557 98.112C877.557 96.942 876.333 96.798 874.875 96.51C872.697 96.096 870.033 95.484 870.033 92.496C870.033 89.94 872.409 88.284 875.325 88.284C878.061 88.284 879.897 89.49 880.635 91.848Z" fill="white"/>
<path d="M827.663 115.509H829.154C828.938 116.312 828.516 116.917 827.907 117.332C827.288 117.765 826.519 117.982 825.591 117.982C824.466 117.982 823.584 117.63 822.947 116.926C822.309 116.24 822 115.256 822 113.984C822 112.765 822.309 111.818 822.919 111.132C823.547 110.428 824.428 110.076 825.553 110.076C826.744 110.076 827.663 110.419 828.31 111.105C828.666 111.529 828.929 112.025 829.079 112.558H826.997C826.922 112.404 826.819 112.26 826.697 112.134C826.444 111.872 826.078 111.737 825.6 111.737C825.206 111.719 824.813 111.863 824.531 112.134C824.175 112.513 823.997 113.145 823.997 114.02C823.997 114.895 824.175 115.509 824.531 115.879C824.785 116.186 825.169 116.339 825.685 116.339C825.985 116.348 826.285 116.276 826.547 116.141C826.613 116.123 826.66 116.087 826.707 116.042L826.866 115.888C826.932 115.807 827.016 115.726 827.1 115.663C827.288 115.554 827.475 115.5 827.663 115.509Z" fill="white"/>
<path d="M829.472 117.846V114.164C829.472 113.424 829.585 112.801 829.81 112.296C830.016 111.827 830.335 111.402 830.738 111.086C831.132 110.798 831.582 110.581 832.06 110.455C832.566 110.319 833.091 110.256 833.616 110.256H833.916V112.287H833.232C832.66 112.287 832.229 112.422 831.957 112.684C831.685 112.946 831.544 113.37 831.544 113.938V117.855L829.472 117.846Z" fill="white"/>
<path d="M835.116 117.161C834.685 116.791 834.376 116.312 834.226 115.78C834.047 115.193 833.954 114.58 833.963 113.966C833.963 113.442 834.038 112.928 834.188 112.423C834.31 111.953 834.554 111.511 834.882 111.141C835.388 110.572 836.091 110.211 836.86 110.13C837.666 110.022 838.398 110.085 839.054 110.32C839.785 110.59 840.385 111.123 840.713 111.809C841.051 112.441 841.22 113.172 841.22 114.002C841.229 114.534 841.163 115.058 841.013 115.572C840.892 115.97 840.713 116.34 840.479 116.683C840.001 117.314 839.401 117.702 838.67 117.856C838.023 118.027 837.348 118.045 836.701 117.901C836.035 117.747 835.51 117.504 835.116 117.161ZM836.532 112.143C836.119 112.585 835.932 113.235 835.969 114.101C836.007 114.968 836.176 115.572 836.476 115.915C836.598 116.069 836.804 116.195 837.094 116.294C837.385 116.403 837.704 116.412 838.004 116.321C838.313 116.231 838.585 116.024 838.82 115.681C839.054 115.338 839.185 114.787 839.204 114.029C839.204 113.343 839.091 112.829 838.866 112.486C838.641 112.143 838.379 111.926 838.079 111.827C837.788 111.728 837.479 111.728 837.188 111.809C836.944 111.863 836.719 111.98 836.532 112.143Z" fill="white"/>
<path d="M841.548 117.847V116.33L845.786 111.818H842.795C842.532 111.827 842.27 111.727 842.082 111.547C841.885 111.375 841.782 111.132 841.782 110.879V110.247H848.251V111.881L844.07 116.195H848.401V117.856L841.548 117.847Z" fill="white"/>
<path d="M853.952 108H854.964C855.236 108 855.499 108.108 855.677 108.298C855.864 108.478 855.968 108.713 855.977 108.966V114.534C855.977 115.888 855.564 116.8 854.749 117.278C853.961 117.747 853.042 118 852.114 117.991C851.599 117.991 851.092 117.91 850.605 117.747C850.136 117.603 849.723 117.332 849.414 116.962C848.842 116.258 848.552 115.301 848.552 114.083C848.552 112.883 848.842 111.926 849.414 111.195C850.005 110.455 850.774 110.085 851.692 110.085C852.142 110.076 852.592 110.175 852.996 110.374C853.38 110.59 853.717 110.897 853.961 111.258V108H853.952ZM850.567 113.993C850.567 114.76 850.717 115.338 851.008 115.735C851.299 116.132 851.73 116.33 852.283 116.33C852.78 116.348 853.249 116.123 853.53 115.735C853.811 115.338 853.942 114.751 853.942 113.993C853.942 113.307 853.792 112.765 853.502 112.368C853.192 111.989 852.724 111.782 852.227 111.8C851.739 111.782 851.28 112.007 851.008 112.395C850.708 112.774 850.558 113.307 850.567 113.993Z" fill="white"/>
<path d="M861.799 115.509H863.29C863.074 116.312 862.652 116.917 862.043 117.332C861.424 117.765 860.655 117.982 859.727 117.982C858.602 117.982 857.721 117.63 857.093 116.926C856.455 116.24 856.146 115.256 856.146 113.984C856.146 112.765 856.455 111.818 857.065 111.132C857.693 110.428 858.574 110.076 859.708 110.076C860.899 110.076 861.818 110.419 862.465 111.105C863.093 111.809 863.412 112.793 863.412 114.047V114.363C863.412 114.435 863.402 114.498 863.384 114.561H858.255C858.274 115.148 858.424 115.59 858.696 115.87C858.949 116.177 859.333 116.33 859.849 116.33C860.149 116.339 860.449 116.267 860.712 116.132C860.777 116.114 860.834 116.078 860.871 116.033L861.03 115.879C861.087 115.789 861.162 115.708 861.255 115.654C861.415 115.554 861.612 115.5 861.799 115.509ZM858.246 113.289H861.274C861.237 112.774 861.096 112.395 860.862 112.143C860.609 111.881 860.243 111.746 859.765 111.746C859.371 111.728 858.977 111.872 858.696 112.143C858.415 112.404 858.265 112.784 858.246 113.289Z" fill="white"/>
<path d="M863.552 115.338H865.568C865.587 115.717 865.737 116.006 866.009 116.195C866.309 116.385 866.703 116.484 867.2 116.484C867.518 116.493 867.837 116.421 868.118 116.276C868.334 116.177 868.475 115.969 868.475 115.735C868.475 115.392 868.062 115.139 867.228 114.968C866.956 114.932 866.693 114.868 866.431 114.796C865.381 114.552 864.678 114.255 864.321 113.912C863.928 113.569 863.731 113.108 863.731 112.54C863.721 111.845 864.031 111.186 864.584 110.744C865.174 110.311 865.953 110.085 866.9 110.085C867.931 110.085 868.747 110.302 869.365 110.744C869.928 111.204 870.265 111.881 870.284 112.603H869.009C868.653 112.612 868.315 112.423 868.146 112.116L867.912 111.89C867.678 111.719 867.35 111.637 866.937 111.637C866.543 111.637 866.243 111.691 866.046 111.809C865.868 111.917 865.765 112.116 865.784 112.323C865.784 112.63 866.3 112.883 867.331 113.09C867.434 113.126 867.537 113.154 867.64 113.181C867.725 113.199 867.809 113.208 867.893 113.208C868.906 113.451 869.6 113.74 870.003 114.065C870.378 114.408 870.565 114.868 870.565 115.437C870.565 116.276 870.247 116.926 869.618 117.377C869.028 117.793 868.137 118 866.956 118C865.831 118 864.987 117.784 864.434 117.341C863.862 116.908 863.571 116.267 863.571 115.437L863.552 115.338Z" fill="white"/>
<path d="M872.956 110.256V113.054L875.478 110.256H877.972L875.15 113.162L878 117.847H875.506L874.053 115.274C873.753 114.76 873.5 114.543 873.284 114.616C873.069 114.688 872.956 114.805 872.956 114.959V117.838H870.884V108.027H871.953C872.225 108.027 872.478 108.126 872.665 108.316C872.853 108.487 872.965 108.722 872.965 108.975L872.956 110.256Z" fill="white"/>
<defs>
<clipPath id="clip0_190_20701">
<rect width="30" height="34" fill="white" transform="translate(640 4)"/>
</clipPath>
</defs>
</svg>
