<svg width="391" height="299" viewBox="0 0 391 299" fill="none" xmlns="http://www.w3.org/2000/svg">
<path d="M0.5 92.1191V11.9819C0.5 9.49665 2.51472 7.48193 5 7.48193H108C110.485 7.48193 112.5 9.49665 112.5 11.9819V92.1191C112.5 93.7189 111.651 95.1984 110.269 96.0051L58.7692 126.078C57.3671 126.897 55.6328 126.897 54.2308 126.078L2.73083 96.0051C1.34934 95.1984 0.5 93.7189 0.5 92.1191Z" stroke="#B880FF"/>
<path d="M39.4118 0.981934C38.0801 0.981934 37.0005 2.0615 37.0005 3.3932V41.1978C37.0005 42.4352 38.34 43.2087 39.4117 42.59L54.9913 33.5963C56.2346 32.8786 57.7664 32.8786 59.0097 33.5963L74.5893 42.59C75.661 43.2087 77.0005 42.4352 77.0005 41.1978V3.3932C77.0005 2.0615 75.9209 0.981934 74.5892 0.981934H39.4118Z" fill="#EB583C"/>
<path d="M65.9607 12.6267H62.6848C62.7777 12.1135 63.096 11.8372 63.7326 11.5082L64.3427 11.2056C65.4169 10.653 66.0005 10.0346 66.0005 9.02141C66.0005 8.37667 65.7485 7.87667 65.2578 7.52141C64.7671 7.15299 64.1835 6.98193 63.4939 6.98193C62.9501 6.98193 62.4594 7.12667 61.9952 7.40299C61.5443 7.6793 61.2127 8.03457 61.0005 8.46878L61.9554 9.41614C62.3267 8.6793 62.8573 8.31088 63.5602 8.31088C64.157 8.31088 64.5151 8.61351 64.5151 9.03457C64.5151 9.38983 64.3427 9.6793 63.653 10.0346L63.2684 10.2188C62.4196 10.6398 61.836 11.1267 61.5045 11.6793C61.1729 12.2188 61.0005 12.9161 61.0005 13.7582V13.9819H65.9607V12.6398V12.6267Z" fill="white"/>
<path d="M65.2471 15.9819H59.7404L57.0005 20.989H62.4938L65.2471 25.9819L68.0005 20.989L65.2471 15.9819Z" fill="white"/>
<path d="M57.3257 24.0514C53.7558 24.0514 50.8561 21.1069 50.8561 17.4819C50.8561 13.8569 53.7558 10.9125 57.3257 10.9125L59.5415 6.20416C58.8303 6.06527 58.0917 5.98193 57.3257 5.98193C51.075 5.98193 46.0005 11.1347 46.0005 17.4819C46.0005 23.8292 51.075 28.9819 57.3257 28.9819C59.8151 28.9819 62.1266 28.1625 64.0005 26.7736L61.5522 22.4542C60.4169 23.4403 58.9534 24.0514 57.3394 24.0514H57.3257Z" fill="white"/>
<path d="M47.0847 62.2869V60.3369H48.6597L49.5297 57.3069H48.2247V55.3419H50.0847L50.5797 53.6319H52.7097L52.2147 55.3419H54.1197L54.6147 53.6319H56.7147L56.2197 55.3419H57.2547V57.3069H55.6497L54.7647 60.3369H56.0547V62.2869H54.1947L53.6997 63.9819H51.5997L52.0947 62.2869H50.2347L49.7547 63.9819H47.6247L48.1047 62.2869H47.0847ZM50.7897 60.3369H52.6647L53.5497 57.3069H51.6597L50.7897 60.3369ZM60.6083 63.9819V56.3919H58.2383V54.8319C59.7233 54.7419 60.7133 53.7819 60.9983 52.7319H63.0233V63.9819H60.6083ZM26.756 72.5219L24.251 73.2419C24.011 72.3119 23.381 71.7269 22.286 71.7269C21.206 71.7269 20.531 72.1619 20.531 72.9269C20.531 73.8419 21.626 73.9919 22.916 74.2469C24.671 74.5919 26.786 75.1769 26.786 77.5619C26.786 79.7819 24.971 81.1619 22.301 81.1619C19.766 81.1619 18.101 80.0819 17.546 77.9969L20.141 77.2469C20.381 78.4619 21.206 78.9869 22.391 78.9869C23.441 78.9869 24.191 78.5669 24.191 77.7419C24.191 76.7669 23.171 76.6469 21.956 76.4069C20.141 76.0619 17.921 75.5519 17.921 73.0619C17.921 70.9319 19.901 69.5519 22.331 69.5519C24.611 69.5519 26.141 70.5569 26.756 72.5219ZM28.4802 80.9819V69.7319H36.2352V71.9969H31.0302V74.0219H34.5402V76.3019H31.0302V78.7169H36.3852V80.9819H28.4802ZM37.1084 75.3569C37.1084 72.0119 39.5534 69.5519 42.9134 69.5519C46.2734 69.5519 48.7184 72.0119 48.7184 75.3569C48.7184 78.7019 46.2734 81.1619 42.9134 81.1619C39.5534 81.1619 37.1084 78.7019 37.1084 75.3569ZM46.0934 75.3569C46.0934 73.2569 44.8334 71.8919 42.9134 71.8919C40.9934 71.8919 39.7334 73.2569 39.7334 75.3569C39.7334 77.4569 40.9934 78.8219 42.9134 78.8219C44.8334 78.8219 46.0934 77.4569 46.0934 75.3569ZM56.2946 80.9819V72.0719H53.1146V69.7319H62.0246V72.0719H58.8446V80.9819H56.2946ZM62.5234 75.3569C62.5234 72.0119 64.9684 69.5519 68.3284 69.5519C71.6884 69.5519 74.1334 72.0119 74.1334 75.3569C74.1334 78.7019 71.6884 81.1619 68.3284 81.1619C64.9684 81.1619 62.5234 78.7019 62.5234 75.3569ZM71.5084 75.3569C71.5084 73.2569 70.2484 71.8919 68.3284 71.8919C66.4084 71.8919 65.1484 73.2569 65.1484 75.3569C65.1484 77.4569 66.4084 78.8219 68.3284 78.8219C70.2484 78.8219 71.5084 77.4569 71.5084 75.3569ZM75.3847 75.3569C75.3847 72.0119 77.8297 69.5519 81.1897 69.5519C84.5497 69.5519 86.9947 72.0119 86.9947 75.3569C86.9947 78.7019 84.5497 81.1619 81.1897 81.1619C77.8297 81.1619 75.3847 78.7019 75.3847 75.3569ZM84.3697 75.3569C84.3697 73.2569 83.1097 71.8919 81.1897 71.8919C79.2697 71.8919 78.0097 73.2569 78.0097 75.3569C78.0097 77.4569 79.2697 78.8219 81.1897 78.8219C83.1097 78.8219 84.3697 77.4569 84.3697 75.3569ZM88.905 80.9819V69.7319H91.455V78.6419H96.42V80.9819H88.905Z" fill="white"/>
<path d="M139.5 92.1191V11.9819C139.5 9.49665 141.515 7.48193 144 7.48193H247C249.485 7.48193 251.5 9.49665 251.5 11.9819V92.1191C251.5 93.7189 250.651 95.1984 249.269 96.0051L197.769 126.078C196.367 126.897 194.633 126.897 193.231 126.078L141.731 96.0051C140.349 95.1984 139.5 93.7189 139.5 92.1191Z" stroke="#B880FF"/>
<path d="M178.412 0.981934C177.08 0.981934 176 2.0615 176 3.3932V41.1978C176 42.4352 177.34 43.2087 178.412 42.59L193.991 33.5963C195.235 32.8786 196.766 32.8786 198.01 33.5963L213.589 42.59C214.661 43.2087 216 42.4352 216 41.1978V3.3932C216 2.0615 214.921 0.981934 213.589 0.981934H178.412Z" fill="#EB583C"/>
<path d="M204.961 12.6267H201.685C201.778 12.1135 202.096 11.8372 202.733 11.5082L203.343 11.2056C204.417 10.653 205 10.0346 205 9.02141C205 8.37667 204.749 7.87667 204.258 7.52141C203.767 7.15299 203.184 6.98193 202.494 6.98193C201.95 6.98193 201.459 7.12667 200.995 7.40299C200.544 7.6793 200.213 8.03457 200 8.46878L200.955 9.41614C201.327 8.6793 201.857 8.31088 202.56 8.31088C203.157 8.31088 203.515 8.61351 203.515 9.03457C203.515 9.38983 203.343 9.6793 202.653 10.0346L202.268 10.2188C201.42 10.6398 200.836 11.1267 200.504 11.6793C200.173 12.2188 200 12.9161 200 13.7582V13.9819H204.961V12.6398V12.6267Z" fill="white"/>
<path d="M204.247 15.9819H198.74L196 20.989H201.494L204.247 25.9819L207 20.989L204.247 15.9819Z" fill="white"/>
<path d="M196.326 24.0514C192.756 24.0514 189.856 21.1069 189.856 17.4819C189.856 13.8569 192.756 10.9125 196.326 10.9125L198.542 6.20416C197.83 6.06527 197.092 5.98193 196.326 5.98193C190.075 5.98193 185 11.1347 185 17.4819C185 23.8292 190.075 28.9819 196.326 28.9819C198.815 28.9819 201.127 28.1625 203 26.7736L200.552 22.4542C199.417 23.4403 197.953 24.0514 196.339 24.0514H196.326Z" fill="white"/>
<path d="M177.588 63.9819V52.7319H182.133C184.128 52.7319 185.493 53.8869 185.493 55.6719C185.493 56.6769 185.043 57.4719 184.128 58.0269C185.388 58.5369 185.988 59.5269 185.988 60.7569C185.988 62.6919 184.503 63.9819 182.358 63.9819H177.588ZM181.803 54.8319H180.078V57.1569H181.803C182.553 57.1569 183.033 56.6919 183.033 55.9869C183.033 55.2669 182.553 54.8319 181.803 54.8319ZM182.103 59.2869H180.078V61.8669H182.103C182.958 61.8669 183.453 61.3719 183.453 60.5919C183.453 59.7819 182.913 59.2869 182.103 59.2869ZM187.739 63.9819V52.7319H195.494V54.9969H190.289V57.0219H193.799V59.3019H190.289V61.7169H195.644V63.9819H187.739ZM205.57 55.5219L203.065 56.2419C202.825 55.3119 202.195 54.7269 201.1 54.7269C200.02 54.7269 199.345 55.1619 199.345 55.9269C199.345 56.8419 200.44 56.9919 201.73 57.2469C203.485 57.5919 205.6 58.1769 205.6 60.5619C205.6 62.7819 203.785 64.1619 201.115 64.1619C198.58 64.1619 196.915 63.0819 196.36 60.9969L198.955 60.2469C199.195 61.4619 200.02 61.9869 201.205 61.9869C202.255 61.9869 203.005 61.5669 203.005 60.7419C203.005 59.7669 201.985 59.6469 200.77 59.4069C198.955 59.0619 196.735 58.5519 196.735 56.0619C196.735 53.9319 198.715 52.5519 201.145 52.5519C203.425 52.5519 204.955 53.5569 205.57 55.5219ZM209.489 63.9819V55.0719H206.309V52.7319H215.219V55.0719H212.039V63.9819H209.489ZM160.216 78.8219C161.446 78.8219 162.196 78.1169 162.196 77.0219V69.7319H164.746V76.9619C164.746 79.5269 162.901 81.1619 160.216 81.1619C157.531 81.1619 155.701 79.5269 155.701 76.9619V69.7319H158.251V77.0219C158.251 78.1169 159.001 78.8219 160.216 78.8219ZM175.468 72.5219L172.963 73.2419C172.723 72.3119 172.093 71.7269 170.998 71.7269C169.918 71.7269 169.243 72.1619 169.243 72.9269C169.243 73.8419 170.338 73.9919 171.628 74.2469C173.383 74.5919 175.498 75.1769 175.498 77.5619C175.498 79.7819 173.683 81.1619 171.013 81.1619C168.478 81.1619 166.813 80.0819 166.258 77.9969L168.853 77.2469C169.093 78.4619 169.918 78.9869 171.103 78.9869C172.153 78.9869 172.903 78.5669 172.903 77.7419C172.903 76.7669 171.883 76.6469 170.668 76.4069C168.853 76.0619 166.633 75.5519 166.633 73.0619C166.633 70.9319 168.613 69.5519 171.043 69.5519C173.323 69.5519 174.853 70.5569 175.468 72.5219ZM175.892 80.9819L180.137 69.7319H182.882L187.112 80.9819H184.457L183.437 78.1169H179.447L178.427 80.9819H175.892ZM180.287 75.7919H182.612L181.457 72.5069L180.287 75.7919ZM188.53 80.9819V69.7319H193.075C195.07 69.7319 196.435 70.8869 196.435 72.6719C196.435 73.6769 195.985 74.4719 195.07 75.0269C196.33 75.5369 196.93 76.5269 196.93 77.7569C196.93 79.6919 195.445 80.9819 193.3 80.9819H188.53ZM192.745 71.8319H191.02V74.1569H192.745C193.495 74.1569 193.975 73.6919 193.975 72.9869C193.975 72.2669 193.495 71.8319 192.745 71.8319ZM193.045 76.2869H191.02V78.8669H193.045C193.9 78.8669 194.395 78.3719 194.395 77.5919C194.395 76.7819 193.855 76.2869 193.045 76.2869ZM198.681 80.9819V69.7319H201.231V80.9819H198.681ZM203.75 80.9819V69.7319H206.3V78.6419H211.265V80.9819H203.75ZM212.92 80.9819V69.7319H215.47V80.9819H212.92ZM220.358 80.9819V72.0719H217.178V69.7319H226.088V72.0719H222.908V80.9819H220.358ZM230.829 80.9819V76.3919L226.809 69.7319H229.719L232.164 73.9469L234.594 69.7319H237.384L233.364 76.3919V80.9819H230.829Z" fill="white"/>
<path d="M278.5 92.1191V11.9819C278.5 9.49665 280.515 7.48193 283 7.48193H386C388.485 7.48193 390.5 9.49665 390.5 11.9819V92.1191C390.5 93.7189 389.651 95.1984 388.269 96.0051L336.769 126.078C335.367 126.897 333.633 126.897 332.231 126.078L280.731 96.0051C279.349 95.1984 278.5 93.7189 278.5 92.1191Z" stroke="#B880FF"/>
<path d="M317.79 0.981934C316.249 0.981934 315 2.23072 315 3.77119V41.5665C315 42.6401 316.163 43.3111 317.092 42.7743L332.909 33.644C334.203 32.8967 335.798 32.8967 337.092 33.644L352.909 42.7744C353.838 43.3111 355 42.6401 355 41.5665V3.77119C355 2.23073 353.752 0.981934 352.211 0.981934H317.79Z" fill="#00A9FF"/>
<path fill-rule="evenodd" clip-rule="evenodd" d="M332.686 12.076C332.684 11.882 332.603 11.7075 332.463 11.5715L328.966 8.17851C328.91 8.12458 328.838 8.08713 328.764 8.05105V8.04122H328.744L328.764 8.05105V8.0653C328.66 8.01121 328.544 7.98193 328.421 7.98193H319.243C319.102 7.98193 319 8.08 319 8.21729C319 8.27612 319.021 8.33496 319.081 8.3938L322.376 11.5906C322.518 11.7279 322.7 11.8064 322.902 11.8064H328.764V24.2019C328.764 24.398 328.845 24.5745 328.986 24.7118L332.281 27.9086C332.322 27.9478 332.382 27.9675 332.443 27.9675C332.584 27.9675 332.686 27.8694 332.686 27.7321V12.2583C332.686 12.2645 332.686 12.2708 332.686 12.2771V12.1005L332.686 12.076ZM338.872 7.98193C338.67 7.98193 338.488 8.06038 338.346 8.19767L334.849 11.5906C334.805 11.6333 334.772 11.6863 334.741 11.7346C334.73 11.7529 334.719 11.7706 334.707 11.7867H334.743C334.699 11.8738 334.673 11.9693 334.668 12.0703C334.668 12.0806 334.667 12.0908 334.667 12.101V27.7517C334.667 27.8106 334.688 27.8694 334.728 27.9086C334.829 28.0067 334.971 28.0067 335.072 27.9086L338.367 24.7118C338.508 24.5745 338.589 24.398 338.589 24.2019V19.4761L346.209 26.8885C346.351 27.0258 346.533 27.0846 346.735 27.0846H350.757C350.899 27.0846 351 26.9866 351 26.8493C351 26.7904 350.98 26.7316 350.939 26.6924L344.713 20.6321L344.471 20.3968V20.356L344.471 20.3566V20.377L344.714 20.6123L344.724 20.6022L344.735 20.6122L348.212 17.2585C348.353 17.1212 348.434 16.9447 348.434 16.7486V16.5721H348.414C348.414 16.5804 348.414 16.5887 348.413 16.597V12.2526C348.414 12.2607 348.414 12.2689 348.414 12.2771V12.1005C348.414 11.9044 348.333 11.7279 348.191 11.5906L344.694 8.19767C344.553 8.06038 344.371 7.98193 344.169 7.98193H344.168H338.872H338.872ZM344.471 17.0428V11.8064H338.589V19.4347L340.953 17.1411C341.014 17.0823 341.075 17.0627 341.135 17.0627H341.276C341.295 17.0503 341.317 17.0428 341.339 17.0428H344.471Z" fill="white"/>
<path d="M312.977 63.9819V52.7319H315.662L318.782 56.8869L321.797 52.7319H324.482V63.9819H322.052V56.0319L319.007 60.1569H318.452L315.407 56.1219V63.9819H312.977ZM326.38 58.3569C326.38 55.0119 328.825 52.5519 332.185 52.5519C335.545 52.5519 337.99 55.0119 337.99 58.3569C337.99 61.7019 335.545 64.1619 332.185 64.1619C328.825 64.1619 326.38 61.7019 326.38 58.3569ZM335.365 58.3569C335.365 56.2569 334.105 54.8919 332.185 54.8919C330.265 54.8919 329.005 56.2569 329.005 58.3569C329.005 60.4569 330.265 61.8219 332.185 61.8219C334.105 61.8219 335.365 60.4569 335.365 58.3569ZM348.181 55.5219L345.676 56.2419C345.436 55.3119 344.806 54.7269 343.711 54.7269C342.631 54.7269 341.956 55.1619 341.956 55.9269C341.956 56.8419 343.051 56.9919 344.341 57.2469C346.096 57.5919 348.211 58.1769 348.211 60.5619C348.211 62.7819 346.396 64.1619 343.726 64.1619C341.191 64.1619 339.526 63.0819 338.971 60.9969L341.566 60.2469C341.806 61.4619 342.631 61.9869 343.816 61.9869C344.866 61.9869 345.616 61.5669 345.616 60.7419C345.616 59.7669 344.596 59.6469 343.381 59.4069C341.566 59.0619 339.346 58.5519 339.346 56.0619C339.346 53.9319 341.326 52.5519 343.756 52.5519C346.036 52.5519 347.566 53.5569 348.181 55.5219ZM352.1 63.9819V55.0719H348.92V52.7319H357.83V55.0719H354.65V63.9819H352.1ZM309.542 80.9819V69.7319H312.092V78.6419H317.057V80.9819H309.542ZM317.437 75.3569C317.437 72.0119 319.882 69.5519 323.242 69.5519C326.602 69.5519 329.047 72.0119 329.047 75.3569C329.047 78.7019 326.602 81.1619 323.242 81.1619C319.882 81.1619 317.437 78.7019 317.437 75.3569ZM326.422 75.3569C326.422 73.2569 325.162 71.8919 323.242 71.8919C321.322 71.8919 320.062 73.2569 320.062 75.3569C320.062 77.4569 321.322 78.8219 323.242 78.8219C325.162 78.8219 326.422 77.4569 326.422 75.3569ZM329.471 69.7319H332.186L334.886 78.3269L337.541 69.7319H340.151L336.506 80.9819H333.131L329.471 69.7319ZM341.724 80.9819V69.7319H349.479V71.9969H344.274V74.0219H347.784V76.3019H344.274V78.7169H349.629V80.9819H341.724ZM351.48 80.9819V69.7319H355.44C358.845 69.7319 361.08 72.1919 361.08 75.3119C361.08 78.5069 358.845 80.9819 355.44 80.9819H351.48ZM355.44 72.0719H354.03V78.6419H355.44C357.27 78.6419 358.455 77.2769 358.455 75.3419C358.455 73.4219 357.27 72.0719 355.44 72.0719Z" fill="white"/>
<path fill-rule="evenodd" clip-rule="evenodd" d="M360.856 91.191C362.378 91.5865 363 92.0092 363 93.1274C363 94.2865 362.167 94.9819 360.579 94.9819C359.785 94.9683 358.99 94.7774 358.276 94.4092L358.461 93.1956C359.123 93.6319 359.877 93.8638 360.645 93.891C361.32 93.891 361.704 93.6456 361.704 93.2501C361.704 92.8138 361.426 92.6501 360.433 92.4047C359.004 92.0365 358.408 91.6274 358.408 90.5365C358.408 89.5274 359.215 88.8047 360.592 88.8047C361.306 88.8047 362.008 88.941 362.656 89.2274L362.471 90.4274C361.889 90.1001 361.254 89.9228 360.592 89.8956C359.996 89.8956 359.705 90.1138 359.705 90.441C359.705 90.7683 359.943 90.9592 360.856 91.191ZM357.588 88.8865V94.8592L356.476 94.8319L356.277 94.0001C355.708 94.5319 355.06 94.9547 354.266 94.9547C353.128 94.9547 352.532 94.2865 352.532 93.1819V88.8728H353.935V92.8138C353.935 93.3456 354.173 93.7001 354.742 93.7001C355.232 93.7001 355.722 93.4001 356.185 92.9365V88.8865H357.588ZM351.685 88.8865V94.8592H350.295V88.8865H351.685ZM351.804 87.1001C351.804 86.6365 351.447 86.2683 350.997 86.2683C350.547 86.2683 350.189 86.6365 350.189 87.1001C350.189 87.5638 350.547 87.9319 350.997 87.9319C351.447 87.9319 351.804 87.5638 351.804 87.1001ZM346.643 93.7138C347.212 93.7138 347.662 93.3865 348.072 92.8683V90.291C347.701 90.1138 347.278 90.0183 346.854 90.0319C346.034 90.0319 345.425 90.6728 345.425 91.9819C345.425 93.1547 345.941 93.7138 346.643 93.7138ZM349.462 85.9819V94.8592H348.284L348.165 94.041C347.728 94.5456 347.146 94.9819 346.299 94.9819C345.028 94.9819 344.009 94.0547 344.009 92.0638C344.009 89.8547 345.253 88.8728 346.656 88.8728C347.146 88.8728 347.622 88.9547 348.072 89.1047V86.2274L349.462 85.9819ZM340.555 93.891C341.111 93.8638 341.64 93.6319 342.037 93.2228H342.05V91.9001C340.211 92.1183 339.774 92.6228 339.774 93.1956C339.774 93.6183 340.078 93.891 340.555 93.891ZM343.427 90.7956V94.8456H342.275L342.143 94.0819C341.614 94.641 340.886 94.9683 340.118 94.9683C339.086 94.9683 338.398 94.3547 338.398 93.3319C338.398 91.9001 339.589 91.2865 342.05 91.041V90.8501C342.05 90.2092 341.653 89.9638 340.991 89.9638C340.29 89.991 339.602 90.1547 338.967 90.441L338.795 89.2956C339.536 88.9819 340.343 88.8183 341.15 88.8183C342.686 88.8183 343.427 89.391 343.427 90.7956ZM335.936 91.5183L338.159 94.641L336.624 94.9274L334.454 91.7774H333.752V94.8592H332.31V86.8956H334.758C336.531 86.8956 337.603 87.7683 337.603 89.2956C337.603 90.4683 336.942 91.191 335.936 91.5183ZM334.573 90.6592C335.552 90.6592 336.161 90.2092 336.161 89.3774C336.161 88.5865 335.645 88.1365 334.652 88.1228H333.752V90.6592H334.573ZM331.41 93.6728L331.582 94.8592C331.277 94.9274 330.973 94.9547 330.655 94.941C329.504 94.941 328.736 94.5319 328.736 93.1956V90.0456H327.797V88.8865H328.736V87.0592L330.113 86.8138V88.8865H331.344L331.582 90.0456H330.113V92.9638C330.113 93.4547 330.338 93.7138 330.907 93.7138C331.079 93.7138 331.251 93.7001 331.41 93.6728ZM325.362 91.191C326.883 91.5865 327.506 92.0092 327.506 93.1274C327.506 94.2865 326.672 94.9819 325.123 94.9819C324.316 94.9683 323.522 94.7774 322.807 94.4092L323.006 93.1956C323.654 93.6319 324.395 93.8638 325.163 93.891C325.838 93.891 326.222 93.6456 326.222 93.2501C326.222 92.8138 325.944 92.6501 324.951 92.4047C323.522 92.0365 322.926 91.6274 322.926 90.5365C322.926 89.5274 323.734 88.8047 325.11 88.8047C325.825 88.8047 326.526 88.941 327.175 89.2274L326.976 90.4274C326.394 90.1001 325.759 89.9228 325.097 89.8956C324.501 89.8956 324.21 90.1138 324.21 90.441C324.21 90.7683 324.448 90.9592 325.362 91.191ZM322.172 88.8865V94.8592L321.06 94.8319L320.862 94.0001C320.293 94.5319 319.644 94.9547 318.85 94.9547C317.712 94.9547 317.116 94.2865 317.116 93.1819V88.8728H318.519V92.8138C318.519 93.3456 318.758 93.7001 319.327 93.7001C319.816 93.7001 320.306 93.4001 320.769 92.9365V88.8865H322.172ZM316.137 88.8047L316.455 90.2092C315.608 90.2638 314.827 90.7274 314.364 91.4501V94.8592H313V88.8865H314.046L314.311 90.1274C314.721 89.4456 315.25 88.9683 316.137 88.8047ZM313.69 86.9819L314 88.3107H310.934V94.9819H309.524V88.3107H307V86.9819H313.69Z" fill="white"/>
<path d="M70 245.119V164.982C70 162.497 72.0147 160.482 74.5 160.482H177.5C179.985 160.482 182 162.497 182 164.982V245.119C182 246.719 181.151 248.198 179.769 249.005L128.269 279.078C126.867 279.897 125.133 279.897 123.731 279.078L72.2308 249.005C70.8493 248.198 70 246.719 70 245.119Z" stroke="#B880FF"/>
<path d="M109.289 153.982C107.749 153.982 106.5 155.231 106.5 156.771V194.567C106.5 195.64 107.662 196.311 108.592 195.774L124.408 186.644C125.703 185.897 127.297 185.897 128.592 186.644L144.408 195.774C145.338 196.311 146.5 195.64 146.5 194.567V156.771C146.5 155.231 145.251 153.982 143.711 153.982H109.289Z" fill="#C6A75C"/>
<g clip-path="url(#clip0_190_7622)">
<path d="M115.349 183.98C115.081 183.721 114.794 183.444 114.5 183.159C118.933 178.947 123.381 174.723 127.855 170.473C124.671 167.451 121.51 164.452 118.323 161.427C118.401 161.412 118.445 161.397 118.487 161.397C120.412 161.397 122.338 161.4 124.263 161.394C124.461 161.394 124.603 161.444 124.743 161.577C126.178 162.95 127.618 164.318 129.059 165.686C130.681 167.228 132.306 168.769 133.93 170.312C133.979 170.358 134.025 170.407 134.074 170.456C131.317 173.073 128.572 175.678 125.793 178.317C125.896 178.334 125.94 178.349 125.984 178.349C126.761 178.35 127.538 178.354 128.315 178.347C128.403 178.347 128.511 178.309 128.571 178.252C131.282 175.684 133.99 173.113 136.697 170.541C136.711 170.528 136.722 170.51 136.736 170.49C132.283 166.259 127.832 162.032 123.356 157.783C123.661 157.494 123.929 157.235 124.207 156.989C124.233 156.966 124.359 157.005 124.405 157.047C124.881 157.489 125.348 157.936 125.819 158.383C130.011 162.366 134.205 166.347 138.398 170.328C138.5 170.425 138.554 170.483 138.419 170.611C135.33 173.535 132.246 176.464 129.164 179.394C129.045 179.507 128.928 179.551 128.76 179.551C126.841 179.544 124.923 179.546 123.005 179.544C122.945 179.544 122.884 179.544 122.814 179.544C125.994 176.525 129.159 173.522 132.321 170.52C132.33 170.485 132.339 170.451 132.348 170.417C132.26 170.363 132.159 170.323 132.085 170.255C129.454 167.76 126.826 165.265 124.202 162.765C124.062 162.631 123.92 162.579 123.722 162.581C122.987 162.591 122.252 162.584 121.517 162.584C121.485 162.584 121.452 162.591 121.405 162.597C124.163 165.212 126.908 167.813 129.642 170.407C124.844 174.963 120.094 179.472 115.347 183.982L115.349 183.98Z" fill="white"/>
</g>
<path d="M101.277 211.055C101.277 213.031 102.304 214.149 103.994 214.149C105.333 214.149 106.152 213.486 106.308 212.511H103.227V210.6H108.596V211.601C108.596 214.227 106.763 216.138 103.955 216.138C101.082 216.138 99.0024 214.006 99.0024 211.055C99.0024 208.182 101.108 206.076 103.981 206.076C106.165 206.076 107.868 207.194 108.388 209.092L106.256 209.703C105.983 208.715 105.19 208.104 103.981 208.104C102.421 208.104 101.277 209.157 101.277 211.055ZM110.339 215.982V206.232H112.549V213.954H116.852V215.982H110.339ZM117.182 211.107C117.182 208.208 119.301 206.076 122.213 206.076C125.125 206.076 127.244 208.208 127.244 211.107C127.244 214.006 125.125 216.138 122.213 216.138C119.301 216.138 117.182 214.006 117.182 211.107ZM124.969 211.107C124.969 209.287 123.877 208.104 122.213 208.104C120.549 208.104 119.457 209.287 119.457 211.107C119.457 212.927 120.549 214.11 122.213 214.11C123.877 214.11 124.969 212.927 124.969 211.107ZM128.9 215.982V206.232H132.839C134.568 206.232 135.751 207.233 135.751 208.78C135.751 209.651 135.361 210.34 134.568 210.821C135.66 211.263 136.18 212.121 136.18 213.187C136.18 214.864 134.893 215.982 133.034 215.982H128.9ZM132.553 208.052H131.058V210.067H132.553C133.203 210.067 133.619 209.664 133.619 209.053C133.619 208.429 133.203 208.052 132.553 208.052ZM132.813 211.913H131.058V214.149H132.813C133.554 214.149 133.983 213.72 133.983 213.044C133.983 212.342 133.515 211.913 132.813 211.913ZM136.748 215.982L140.427 206.232H142.806L146.472 215.982H144.171L143.287 213.499H139.829L138.945 215.982H136.748ZM140.557 211.484H142.572L141.571 208.637L140.557 211.484ZM147.701 215.982V206.232H149.911V213.954H154.214V215.982H147.701ZM106.191 224.65L104.02 225.274C103.812 224.468 103.266 223.961 102.317 223.961C101.381 223.961 100.796 224.338 100.796 225.001C100.796 225.794 101.745 225.924 102.863 226.145C104.384 226.444 106.217 226.951 106.217 229.018C106.217 230.942 104.644 232.138 102.33 232.138C100.133 232.138 98.6905 231.202 98.2095 229.395L100.458 228.745C100.666 229.798 101.381 230.253 102.408 230.253C103.318 230.253 103.968 229.889 103.968 229.174C103.968 228.329 103.084 228.225 102.031 228.017C100.458 227.718 98.5345 227.276 98.5345 225.118C98.5345 223.272 100.25 222.076 102.356 222.076C104.332 222.076 105.658 222.947 106.191 224.65ZM107.686 231.982V222.232H114.407V224.195H109.896V225.95H112.938V227.926H109.896V230.019H114.537V231.982H107.686ZM115.192 231.982L118.871 222.232H121.25L124.916 231.982H122.615L121.731 229.499H118.273L117.389 231.982H115.192ZM119.001 227.484H121.016L120.015 224.637L119.001 227.484ZM126.145 231.982V222.232H130.201C132.151 222.232 133.542 223.454 133.542 225.391C133.542 226.535 132.931 227.458 131.995 227.965L134.517 231.982H132.047L129.902 228.55H128.342V231.982H126.145ZM130.11 224.195H128.342V226.574H130.149C130.877 226.574 131.332 226.119 131.332 225.391C131.332 224.663 130.851 224.195 130.11 224.195ZM134.79 227.107C134.79 224.221 136.844 222.076 139.743 222.076C141.992 222.076 143.643 223.324 144.124 225.287L141.979 225.924C141.68 224.767 140.952 224.104 139.743 224.104C138.092 224.104 137.065 225.339 137.065 227.107C137.065 228.875 138.04 230.11 139.691 230.11C140.926 230.11 141.745 229.473 142.083 228.29L144.202 228.888C143.604 230.903 141.953 232.138 139.691 232.138C136.74 232.138 134.79 230.032 134.79 227.107ZM145.518 231.982V222.232H147.728V225.846H151.797V222.232H154.007V231.982H151.797V227.874H147.728V231.982H145.518ZM97.0883 247.982L100.767 238.232H103.146L106.812 247.982H104.511L103.627 245.499H100.169L99.2853 247.982H97.0883ZM100.897 243.484H102.912L101.911 240.637L100.897 243.484ZM112.078 240.936H112.559L114.691 245.252L116.121 238.232H118.292L116.277 247.982H113.95L112.299 244.667L110.739 247.982H108.412L106.384 238.232H108.581L110.037 245.252L112.078 240.936ZM117.934 247.982L121.613 238.232H123.992L127.658 247.982H125.357L124.473 245.499H121.015L120.131 247.982H117.934ZM121.743 243.484H123.758L122.757 240.637L121.743 243.484ZM128.887 247.982V238.232H132.943C134.893 238.232 136.284 239.454 136.284 241.391C136.284 242.535 135.673 243.458 134.737 243.965L137.259 247.982H134.789L132.644 244.55H131.084V247.982H128.887ZM132.852 240.195H131.084V242.574H132.891C133.619 242.574 134.074 242.119 134.074 241.391C134.074 240.663 133.593 240.195 132.852 240.195ZM138.51 247.982V238.232H141.942C144.893 238.232 146.83 240.364 146.83 243.068C146.83 245.837 144.893 247.982 141.942 247.982H138.51ZM141.942 240.26H140.72V245.954H141.942C143.528 245.954 144.555 244.771 144.555 243.094C144.555 241.43 143.528 240.26 141.942 240.26ZM155.652 240.65L153.481 241.274C153.273 240.468 152.727 239.961 151.778 239.961C150.842 239.961 150.257 240.338 150.257 241.001C150.257 241.794 151.206 241.924 152.324 242.145C153.845 242.444 155.678 242.951 155.678 245.018C155.678 246.942 154.105 248.138 151.791 248.138C149.594 248.138 148.151 247.202 147.67 245.395L149.919 244.745C150.127 245.798 150.842 246.253 151.869 246.253C152.779 246.253 153.429 245.889 153.429 245.174C153.429 244.329 152.545 244.225 151.492 244.017C149.919 243.718 147.995 243.276 147.995 241.118C147.995 239.272 149.711 238.076 151.817 238.076C153.793 238.076 155.119 238.947 155.652 240.65Z" fill="white"/>
<path d="M209 245.119V164.982C209 162.497 211.015 160.482 213.5 160.482H316.5C318.985 160.482 321 162.497 321 164.982V245.119C321 246.719 320.151 248.198 318.769 249.005L267.269 279.078C265.867 279.897 264.133 279.897 262.731 279.078L211.231 249.005C209.849 248.198 209 246.719 209 245.119Z" stroke="#B880FF"/>
<path d="M248.289 153.982C246.749 153.982 245.5 155.231 245.5 156.771V194.567C245.5 195.64 246.662 196.311 247.592 195.774L263.408 186.644C264.703 185.897 266.297 185.897 267.592 186.644L283.408 195.774C284.338 196.311 285.5 195.64 285.5 194.567V156.771C285.5 155.231 284.251 153.982 282.711 153.982H248.289Z" fill="#00A9FF"/>
<path d="M275.098 175.067C273.721 174.269 272.326 173.471 270.949 172.655C270.579 172.406 270.102 172.406 269.731 172.655C268.707 173.276 267.648 173.843 266.624 174.464C266.43 174.606 266.2 174.642 265.971 174.588C264.859 173.932 263.711 173.258 262.563 172.637C262.193 172.477 261.981 172.087 262.034 171.679C262.051 170.455 262.051 169.231 262.034 168.024C261.998 167.705 262.193 167.386 262.493 167.261C263.534 166.676 264.558 166.055 265.6 165.47C266.006 165.274 266.253 164.866 266.218 164.405C266.2 162.808 266.218 161.194 266.218 159.597C266.218 158.994 265.953 158.834 265.441 159.118C264.064 159.917 262.669 160.715 261.292 161.531C261.239 161.549 261.186 161.584 261.133 161.62C259.792 162.4 258.468 163.181 257.126 163.944C256.79 164.103 256.578 164.423 256.526 164.795C256.526 164.813 256.526 164.849 256.508 164.866C256.49 164.884 256.508 164.92 256.508 164.937C256.508 164.955 256.508 164.991 256.508 165.026C256.508 167.989 256.508 170.952 256.508 173.914C256.508 174.216 256.508 174.535 256.508 174.837C256.473 175.28 256.72 175.706 257.126 175.901C259.933 177.533 262.758 179.166 265.565 180.798C265.847 180.975 266.183 181.029 266.5 180.94C266.624 180.904 266.73 180.851 266.836 180.798C268.16 180.017 269.502 179.254 270.843 178.474C270.896 178.438 270.932 178.421 270.985 178.385L275.134 175.972C275.628 175.688 275.628 175.369 275.098 175.067Z" fill="white"/>
<path d="M227.209 217.982V206.732H229.759V210.902H234.454V206.732H237.004V217.982H234.454V213.242H229.759V217.982H227.209ZM238.434 217.982L242.679 206.732H245.424L249.654 217.982H246.999L245.979 215.117H241.989L240.969 217.982H238.434ZM242.829 212.792H245.154L243.999 209.507L242.829 212.792ZM251.072 217.982V206.732H255.917C258.227 206.732 259.802 208.292 259.802 210.497C259.802 212.642 258.227 214.232 255.917 214.232H253.622V217.982H251.072ZM255.752 208.997H253.622V211.952H255.752C256.652 211.952 257.252 211.412 257.252 210.497C257.252 209.537 256.652 208.997 255.752 208.997ZM261.501 217.982V206.732H266.346C268.656 206.732 270.231 208.292 270.231 210.497C270.231 212.642 268.656 214.232 266.346 214.232H264.051V217.982H261.501ZM266.181 208.997H264.051V211.952H266.181C267.081 211.952 267.681 211.412 267.681 210.497C267.681 209.537 267.081 208.997 266.181 208.997ZM272.048 217.982V206.732H274.598V217.982H272.048ZM277.116 217.982V206.732H284.871V208.997H279.666V211.022H283.176V213.302H279.666V215.717H285.021V217.982H277.116ZM294.948 209.522L292.443 210.242C292.203 209.312 291.573 208.727 290.478 208.727C289.398 208.727 288.723 209.162 288.723 209.927C288.723 210.842 289.818 210.992 291.108 211.247C292.863 211.592 294.978 212.177 294.978 214.562C294.978 216.782 293.163 218.162 290.493 218.162C287.958 218.162 286.293 217.082 285.738 214.997L288.333 214.247C288.573 215.462 289.398 215.987 290.583 215.987C291.633 215.987 292.383 215.567 292.383 214.742C292.383 213.767 291.363 213.647 290.148 213.407C288.333 213.062 286.113 212.552 286.113 210.062C286.113 207.932 288.093 206.552 290.523 206.552C292.803 206.552 294.333 207.557 294.948 209.522ZM298.866 217.982V209.072H295.686V206.732H304.596V209.072H301.416V217.982H298.866ZM245.206 233.822C246.436 233.822 247.186 233.117 247.186 232.022V224.732H249.736V231.962C249.736 234.527 247.891 236.162 245.206 236.162C242.521 236.162 240.691 234.527 240.691 231.962V224.732H243.241V232.022C243.241 233.117 243.991 233.822 245.206 233.822ZM260.458 227.522L257.953 228.242C257.713 227.312 257.083 226.727 255.988 226.727C254.908 226.727 254.233 227.162 254.233 227.927C254.233 228.842 255.328 228.992 256.618 229.247C258.373 229.592 260.488 230.177 260.488 232.562C260.488 234.782 258.673 236.162 256.003 236.162C253.468 236.162 251.803 235.082 251.248 232.997L253.843 232.247C254.083 233.462 254.908 233.987 256.093 233.987C257.143 233.987 257.893 233.567 257.893 232.742C257.893 231.767 256.873 231.647 255.658 231.407C253.843 231.062 251.623 230.552 251.623 228.062C251.623 225.932 253.603 224.552 256.033 224.552C258.313 224.552 259.843 225.557 260.458 227.522ZM262.182 235.982V224.732H269.937V226.997H264.732V229.022H268.242V231.302H264.732V233.717H270.087V235.982H262.182ZM271.938 235.982V224.732H276.618C278.868 224.732 280.473 226.142 280.473 228.377C280.473 229.697 279.768 230.762 278.688 231.347L281.598 235.982H278.748L276.273 232.022H274.473V235.982H271.938ZM276.513 226.997H274.473V229.742H276.558C277.398 229.742 277.923 229.217 277.923 228.377C277.923 227.537 277.368 226.997 276.513 226.997ZM291.029 227.522L288.524 228.242C288.284 227.312 287.654 226.727 286.559 226.727C285.479 226.727 284.804 227.162 284.804 227.927C284.804 228.842 285.899 228.992 287.189 229.247C288.944 229.592 291.059 230.177 291.059 232.562C291.059 234.782 289.244 236.162 286.574 236.162C284.039 236.162 282.374 235.082 281.819 232.997L284.414 232.247C284.654 233.462 285.479 233.987 286.664 233.987C287.714 233.987 288.464 233.567 288.464 232.742C288.464 231.767 287.444 231.647 286.229 231.407C284.414 231.062 282.194 230.552 282.194 228.062C282.194 225.932 284.174 224.552 286.604 224.552C288.884 224.552 290.414 225.557 291.029 227.522Z" fill="white"/>
<path d="M247.551 246.988H248.749C248.575 247.631 248.236 248.114 247.747 248.446C247.249 248.793 246.632 248.966 245.886 248.966C244.982 248.966 244.274 248.685 243.761 248.122C243.249 247.573 243 246.786 243 245.768C243 244.793 243.249 244.035 243.739 243.487C244.244 242.924 244.952 242.642 245.856 242.642C246.812 242.642 247.551 242.916 248.071 243.465C248.357 243.804 248.568 244.201 248.688 244.627H247.016C246.956 244.505 246.873 244.389 246.775 244.288C246.571 244.079 246.278 243.97 245.893 243.97C245.577 243.956 245.261 244.072 245.035 244.288C244.748 244.591 244.605 245.097 244.605 245.797C244.605 246.497 244.748 246.988 245.035 247.284C245.238 247.53 245.547 247.652 245.961 247.652C246.202 247.659 246.443 247.602 246.654 247.493C246.707 247.479 246.745 247.45 246.782 247.414L246.91 247.291C246.963 247.226 247.031 247.161 247.099 247.111C247.249 247.024 247.4 246.981 247.551 246.988Z" fill="white"/>
<path d="M249.007 248.858V245.913C249.007 245.321 249.098 244.822 249.279 244.418C249.444 244.043 249.7 243.703 250.024 243.451C250.341 243.22 250.702 243.047 251.087 242.945C251.493 242.837 251.915 242.787 252.337 242.787H252.578V244.411H252.028C251.569 244.411 251.222 244.519 251.004 244.729C250.785 244.938 250.672 245.277 250.672 245.732V248.865L249.007 248.858Z" fill="white"/>
<path d="M253.542 248.31C253.195 248.014 252.947 247.631 252.826 247.205C252.683 246.736 252.608 246.245 252.615 245.754C252.615 245.336 252.676 244.924 252.796 244.52C252.894 244.144 253.09 243.791 253.354 243.495C253.76 243.04 254.325 242.751 254.943 242.686C255.591 242.599 256.179 242.65 256.706 242.838C257.294 243.054 257.776 243.48 258.039 244.029C258.311 244.534 258.446 245.119 258.446 245.783C258.454 246.209 258.401 246.628 258.28 247.039C258.183 247.357 258.039 247.653 257.851 247.927C257.467 248.433 256.985 248.743 256.397 248.866C255.877 249.003 255.335 249.017 254.815 248.902C254.28 248.779 253.858 248.584 253.542 248.31ZM254.679 244.296C254.348 244.65 254.197 245.169 254.227 245.863C254.258 246.556 254.393 247.039 254.634 247.314C254.732 247.436 254.898 247.537 255.131 247.617C255.365 247.703 255.621 247.711 255.862 247.638C256.111 247.566 256.329 247.4 256.518 247.126C256.706 246.852 256.811 246.411 256.826 245.805C256.826 245.256 256.736 244.845 256.555 244.57C256.374 244.296 256.164 244.123 255.922 244.043C255.689 243.964 255.44 243.964 255.207 244.029C255.011 244.072 254.83 244.166 254.679 244.296Z" fill="white"/>
<path d="M258.713 248.858V247.646L262.119 244.036H259.715C259.504 244.043 259.293 243.964 259.143 243.819C258.985 243.682 258.902 243.487 258.902 243.285V242.78H264.1V244.086L260.74 247.537H264.22V248.866L258.713 248.858Z" fill="white"/>
<path d="M268.676 240.982H269.489C269.708 240.982 269.919 241.069 270.062 241.22C270.213 241.365 270.295 241.552 270.303 241.754V246.209C270.303 247.292 269.971 248.021 269.316 248.403C268.683 248.779 267.945 248.981 267.199 248.974C266.785 248.974 266.378 248.909 265.986 248.779C265.61 248.663 265.278 248.447 265.03 248.151C264.57 247.588 264.336 246.822 264.336 245.848C264.336 244.888 264.57 244.122 265.03 243.538C265.504 242.946 266.122 242.65 266.86 242.65C267.222 242.642 267.583 242.722 267.907 242.881C268.216 243.054 268.487 243.299 268.683 243.588V240.982H268.676ZM265.956 245.776C265.956 246.389 266.077 246.851 266.31 247.169C266.544 247.486 266.89 247.645 267.335 247.645C267.734 247.66 268.111 247.479 268.337 247.169C268.563 246.851 268.668 246.382 268.668 245.776C268.668 245.227 268.548 244.794 268.314 244.476C268.066 244.173 267.689 244.007 267.29 244.021C266.898 244.007 266.529 244.187 266.31 244.498C266.069 244.801 265.949 245.227 265.956 245.776Z" fill="white"/>
<path d="M274.983 246.988H276.18C276.007 247.631 275.668 248.114 275.179 248.446C274.681 248.793 274.064 248.966 273.318 248.966C272.414 248.966 271.706 248.685 271.201 248.122C270.689 247.573 270.44 246.786 270.44 245.768C270.44 244.793 270.689 244.035 271.178 243.487C271.683 242.924 272.391 242.642 273.303 242.642C274.259 242.642 274.998 242.916 275.518 243.465C276.022 244.028 276.278 244.815 276.278 245.819V246.071C276.278 246.129 276.271 246.18 276.256 246.23H272.135C272.15 246.699 272.271 247.053 272.489 247.277C272.692 247.522 273.001 247.645 273.416 247.645C273.657 247.652 273.898 247.595 274.109 247.486C274.161 247.472 274.207 247.443 274.237 247.407L274.365 247.284C274.41 247.212 274.47 247.147 274.546 247.104C274.674 247.024 274.832 246.981 274.983 246.988ZM272.127 245.212H274.561C274.531 244.801 274.418 244.497 274.229 244.295C274.026 244.086 273.732 243.978 273.348 243.978C273.031 243.963 272.715 244.079 272.489 244.295C272.263 244.505 272.143 244.808 272.127 245.212Z" fill="white"/>
<path d="M276.392 246.852H278.012C278.027 247.156 278.147 247.387 278.366 247.538C278.607 247.69 278.923 247.769 279.323 247.769C279.579 247.777 279.835 247.719 280.061 247.603C280.234 247.524 280.347 247.358 280.347 247.17C280.347 246.896 280.016 246.694 279.345 246.557C279.127 246.528 278.916 246.477 278.705 246.419C277.861 246.224 277.296 245.986 277.01 245.712C276.693 245.438 276.535 245.069 276.535 244.615C276.528 244.059 276.776 243.532 277.221 243.178C277.695 242.831 278.321 242.651 279.082 242.651C279.91 242.651 280.566 242.824 281.063 243.178C281.515 243.546 281.786 244.088 281.801 244.665H280.777C280.49 244.672 280.219 244.521 280.084 244.275L279.895 244.095C279.707 243.958 279.443 243.893 279.112 243.893C278.795 243.893 278.554 243.936 278.396 244.03C278.253 244.116 278.17 244.275 278.185 244.441C278.185 244.687 278.599 244.889 279.428 245.055C279.511 245.084 279.594 245.105 279.677 245.127C279.745 245.142 279.812 245.149 279.88 245.149C280.694 245.344 281.251 245.575 281.575 245.835C281.876 246.109 282.027 246.477 282.027 246.932C282.027 247.603 281.771 248.123 281.266 248.484C280.792 248.816 280.076 248.982 279.127 248.982C278.223 248.982 277.545 248.809 277.1 248.455C276.641 248.109 276.407 247.596 276.407 246.932L276.392 246.852Z" fill="white"/>
<path d="M283.947 242.788V245.026L285.973 242.788H287.977L285.709 245.112L288 248.859H285.996L284.828 246.801C284.587 246.39 284.384 246.217 284.21 246.274C284.037 246.332 283.947 246.426 283.947 246.549V248.852H282.282V241.004H283.141C283.359 241.004 283.562 241.084 283.713 241.235C283.864 241.373 283.954 241.56 283.954 241.762L283.947 242.788Z" fill="white"/>
<defs>
<clipPath id="clip0_190_7622">
<rect width="24" height="27" fill="white" transform="translate(114.5 156.982)"/>
</clipPath>
</defs>
</svg>
